<?xml version="1.0" standalone="no"?>
<!DOCTYPE svg PUBLIC "-//W3C//DTD SVG 20010904//EN"
 "http://www.w3.org/TR/2001/REC-SVG-20010904/DTD/svg10.dtd">
<svg version="1.0" xmlns="http://www.w3.org/2000/svg"
 width="1080.000000pt" height="1080.000000pt" viewBox="0 0 1080.000000 1080.000000"
 preserveAspectRatio="xMidYMid meet">

<g transform="translate(0.000000,1080.000000) scale(0.100000,-0.100000)"
fill="#000000" stroke="none">
<path d="M0 5400 l0 -5400 5400 0 5400 0 0 5400 0 5400 -5400 0 -5400 0 0
-5400z m2591 2758 c99 -46 175 -144 194 -250 l7 -37 497 -3 496 -3 55 -26
c117 -55 179 -143 187 -267 9 -129 -67 -250 -194 -310 l-58 -27 -493 -3 -493
-3 3 -502 4 -502 26 -96 c45 -164 116 -280 223 -361 101 -77 124 -81 450 -89
160 -3 304 -11 320 -16 99 -33 178 -101 222 -191 24 -50 28 -69 28 -147 0 -77
-4 -98 -27 -147 -31 -68 -95 -133 -164 -168 l-49 -25 -381 -3 c-349 -3 -388
-1 -472 17 -168 37 -285 95 -415 207 -82 70 -190 197 -238 282 l-31 52 -80
-75 c-64 -60 -102 -86 -182 -125 -151 -72 -210 -85 -401 -84 -378 1 -640 95
-858 309 -155 151 -257 385 -257 591 0 207 97 440 246 588 228 228 475 316
888 316 203 0 276 -12 379 -64 l67 -34 0 134 0 133 -702 3 -703 3 -57 27
c-118 55 -198 170 -198 285 0 126 68 231 188 290 l57 28 705 3 706 3 17 67
c22 85 74 156 147 200 75 45 102 51 200 49 68 -2 96 -8 141 -29z m2557 -143
c79 -35 152 -112 181 -190 20 -52 21 -77 21 -364 0 -340 4 -370 63 -457 25
-38 48 -57 101 -84 l69 -35 846 -6 c812 -5 850 -6 936 -26 300 -70 556 -268
673 -523 64 -138 87 -242 86 -395 -1 -160 -22 -247 -94 -390 -113 -226 -341
-420 -580 -494 -185 -58 -146 -56 -1380 -56 l-1135 0 -57 28 c-121 59 -189
161 -196 292 -5 108 21 178 94 256 65 67 119 95 210 109 42 6 475 10 1131 10
1034 0 1064 1 1115 20 72 27 126 74 154 134 56 119 4 236 -136 312 -33 18 -76
19 -855 25 -727 5 -831 7 -915 23 -229 43 -398 128 -559 280 -117 112 -197
249 -244 419 -21 79 -22 99 -22 492 l0 410 23 45 c89 171 295 244 470 165z
m2414 24 c108 -22 208 -109 247 -215 31 -81 27 -197 -9 -268 -35 -69 -109
-142 -177 -174 l-58 -27 -745 0 c-851 0 -805 -4 -904 86 -67 61 -100 116 -116
192 -36 178 73 356 249 403 62 17 1434 19 1513 3z m-3725 -1243 c73 -33 153
-112 186 -183 17 -38 22 -67 22 -138 0 -78 -4 -98 -28 -150 -34 -72 -101 -138
-183 -180 -54 -28 -67 -30 -164 -30 -97 0 -110 2 -170 31 -109 52 -178 133
-206 244 -47 183 59 363 251 427 25 8 76 12 135 10 79 -3 105 -8 157 -31z
m4795 -1278 c108 -50 191 -163 207 -283 22 -164 -58 -316 -207 -391 -52 -27
-66 -29 -162 -29 -91 0 -112 3 -155 24 -69 34 -146 110 -181 178 -40 79 -46
210 -14 295 38 101 122 184 224 220 77 28 212 21 288 -14z m903 -5 c76 -40
136 -102 172 -178 24 -52 28 -72 28 -155 0 -82 -4 -103 -27 -152 -35 -76 -95
-138 -170 -179 -60 -33 -68 -34 -168 -34 -93 0 -112 3 -162 27 -76 35 -142
104 -181 186 -57 122 -39 277 43 381 46 58 84 87 159 118 48 20 69 23 151 20
83 -3 103 -7 155 -34z m-6324 -659 c73 -22 141 -69 188 -132 51 -67 65 -111
66 -199 l0 -72 410 -3 410 -3 55 -26 c70 -33 126 -89 159 -159 22 -47 26 -69
26 -145 0 -95 -18 -149 -68 -202 l-20 -23 494 0 c512 -1 610 -6 684 -39 56
-25 123 -92 155 -156 21 -43 25 -64 25 -145 0 -81 -4 -102 -25 -143 -30 -60
-105 -131 -168 -160 -47 -22 -50 -22 -717 -22 l-670 0 -63 34 c-73 40 -116 85
-149 158 -49 106 -41 209 24 311 l33 52 -358 0 -357 0 -124 -718 c-217 -1250
-216 -1242 -246 -1310 -36 -79 -113 -153 -186 -177 -79 -27 -181 -25 -254 4
-122 49 -225 189 -225 305 0 32 221 1336 316 1863 l6 31 -184 4 c-161 3 -188
6 -228 24 -71 34 -136 97 -171 170 -28 57 -33 76 -33 144 0 99 31 167 109 239
92 83 125 91 393 91 l228 0 17 86 c27 139 80 226 174 281 91 53 178 65 274 37z
m5019 -184 c126 -24 211 -88 262 -196 61 -130 45 -268 -42 -366 -77 -88 -191
-128 -365 -128 -119 0 -185 -13 -263 -51 -205 -100 -382 -357 -447 -647 -36
-158 -36 -365 -1 -503 54 -210 246 -395 471 -454 47 -12 123 -15 386 -15 364
0 397 5 499 70 94 60 193 191 235 310 45 126 48 190 54 965 l6 740 24 53 c34
76 121 153 199 176 75 23 176 18 244 -11 50 -23 149 -115 573 -534 175 -173
268 -271 283 -301 89 -179 11 -390 -176 -476 -46 -21 -72 -26 -137 -26 -101 0
-165 27 -253 108 l-62 58 0 -203 c0 -649 -127 -1060 -417 -1353 -145 -146
-281 -219 -491 -261 -71 -15 -141 -16 -544 -12 -487 5 -513 7 -713 58 -105 27
-233 81 -320 137 -145 92 -355 333 -445 512 -116 229 -171 553 -141 831 38
346 134 583 319 782 l45 47 -190 0 c-104 0 -216 5 -249 11 -165 30 -285 169
-287 332 -2 167 97 301 252 343 59 16 1610 19 1691 4z m-4373 -1875 c69 -21
93 -42 163 -146 89 -134 108 -156 172 -205 68 -53 146 -93 243 -125 69 -23 80
-23 600 -29 528 -6 530 -6 590 -29 82 -33 164 -115 194 -195 64 -172 -9 -345
-178 -425 l-56 -26 -625 0 -625 0 -100 28 c-224 61 -430 198 -613 409 -67 77
-181 259 -202 323 -17 52 -8 169 17 227 24 54 90 128 141 160 73 45 192 59
279 33z"/>
<path d="M1432 6446 c-95 -31 -163 -101 -197 -205 -46 -140 30 -303 171 -368
52 -23 59 -24 261 -21 238 3 254 8 335 90 146 149 106 394 -80 485 -56 27 -61
28 -252 30 -144 2 -206 -1 -238 -11z"/>
</g>
</svg>
